<svg width="32" height="32" viewBox="0 0 32 32" fill="none" xmlns="http://www.w3.org/2000/svg">
<path d="M8.26556 0H23.1208C23.4509 0.17006 23.9461 0.170059 24.2762 0.340119C25.7248 0.582001 27.0792 1.23535 28.1872 2.22672C29.2952 3.2181 30.1129 4.50822 30.5484 5.95209C30.7921 6.78414 30.9579 7.63834 31.0435 8.50298V23.4682C30.8076 25.3649 30.1278 27.1741 29.0628 28.7401C28.1492 29.8307 27.0038 30.6896 25.7155 31.25C24.4273 31.8104 23.0311 32.0572 21.6352 31.9712H9.2559C7.04668 32.0817 4.87453 31.3558 3.14876 29.9305C2.09933 28.9963 1.27116 27.8272 0.727608 26.5126C0.184052 25.198 -0.0604975 23.7728 0.0126644 22.3458V10.4417C-0.0146029 9.58783 0.0406888 8.73331 0.177722 7.89077C0.344397 6.14729 1.04017 4.50229 2.16616 3.18954C3.29215 1.87678 4.79107 0.963052 6.44992 0.578203L8.26556 0ZM3.14876 16.1557V22.788C3.07839 23.6326 3.18805 24.4828 3.47008 25.2791C3.75211 26.0754 4.19968 26.7986 4.78145 27.398C5.36322 27.9974 6.06514 28.4586 6.83805 28.7491C7.61095 29.0397 8.43617 29.1527 9.2559 29.0802C13.5474 29.2503 17.8389 29.2503 22.1304 29.0802C25.9267 29.0802 28.0725 26.6994 28.2376 22.788C28.4026 18.3664 28.4026 13.9449 28.2376 9.52334C28.2803 8.68543 28.1516 7.84761 27.8599 7.06425C27.5681 6.28088 27.1197 5.56947 26.5439 4.97616C25.968 4.38285 25.2775 3.9209 24.5172 3.62027C23.7569 3.31965 22.9437 3.18707 22.1304 3.23113C17.8389 3.06107 13.5474 3.06107 9.2559 3.23113C8.43617 3.15862 7.61095 3.27161 6.83805 3.56219C6.06514 3.85276 5.36322 4.31389 4.78145 4.91329C4.19968 5.5127 3.75211 6.23588 3.47008 7.03221C3.18805 7.82854 3.07839 8.67876 3.14876 9.52334V16.1557Z" fill="#FB7327"/>
<path d="M7.67578 16.2235C7.68014 14.0149 8.53365 11.898 10.0495 10.3362C11.5653 8.77449 13.6199 7.89512 15.7636 7.89062C17.8954 7.93413 19.9281 8.82603 21.4359 10.3794C22.9436 11.9328 23.8092 14.0271 23.8514 16.2235C23.8471 18.4322 22.9936 20.5491 21.4778 22.1108C19.9619 23.6726 17.9073 24.552 15.7636 24.5565C13.6318 24.513 11.5991 23.6211 10.0914 22.0677C8.58367 20.5143 7.71801 18.4199 7.67578 16.2235ZM15.7636 10.9517C14.7611 10.9349 13.7765 11.2269 12.9361 11.7903C12.0957 12.3537 11.4377 13.1629 11.0465 14.114C10.6553 15.0652 10.5487 16.115 10.7403 17.129C10.9319 18.143 11.413 19.075 12.122 19.8055C12.831 20.5359 13.7355 21.0316 14.7197 21.2291C15.7039 21.4265 16.7229 21.3166 17.646 20.9135C18.5692 20.5105 19.3546 19.8325 19.9014 18.9667C20.4482 18.1008 20.7317 17.0864 20.7154 16.0535C20.7154 14.7004 20.1936 13.4027 19.265 12.446C18.3364 11.4892 17.0769 10.9517 15.7636 10.9517Z" fill="#FB7327"/>
<path d="M22.0323 7.54968C22.0231 7.27913 22.068 7.00952 22.1643 6.75763C22.2606 6.50574 22.4061 6.27697 22.5919 6.08554C22.7777 5.89411 22.9998 5.74414 23.2442 5.64494C23.4887 5.54575 23.7504 5.49947 24.013 5.50897C24.5269 5.54478 25.0107 5.77128 25.3749 6.14651C25.7391 6.52173 25.9589 7.02024 25.9937 7.54968C25.9937 8.09091 25.785 8.60998 25.4136 8.99269C25.0421 9.37539 24.5383 9.5904 24.013 9.5904C23.4877 9.5904 22.9839 9.37539 22.6124 8.99269C22.241 8.60998 22.0323 8.09091 22.0323 7.54968Z" fill="#FB7327"/>
</svg>
