<svg width="24" height="24" viewBox="0 0 24 24" fill="none" xmlns="http://www.w3.org/2000/svg">
<path d="M20.8614 16.2263V18.9361C20.8624 19.1876 20.8108 19.4366 20.7098 19.6671C20.6088 19.8976 20.4607 20.1045 20.275 20.2745C20.0893 20.4446 19.87 20.5741 19.6312 20.6547C19.3924 20.7353 19.1394 20.7652 18.8884 20.7425C16.1035 20.4405 13.4283 19.4908 11.078 17.9696C8.89123 16.5828 7.03728 14.7325 5.64774 12.5501C4.11821 10.1938 3.16636 7.51095 2.86928 4.71903C2.84667 4.46926 2.87641 4.21752 2.95662 3.97984C3.03683 3.74217 3.16575 3.52376 3.33517 3.33854C3.50458 3.15331 3.71079 3.00532 3.94066 2.90399C4.17052 2.80266 4.41901 2.7502 4.6703 2.74997H7.38541C7.82463 2.74565 8.25043 2.90088 8.58346 3.18671C8.91649 3.47255 9.13401 3.86949 9.19548 4.30354C9.31008 5.17071 9.5226 6.02216 9.829 6.84165C9.95077 7.16494 9.97712 7.5163 9.90494 7.85408C9.83276 8.19186 9.66507 8.50191 9.42174 8.74749L8.27234 9.89461C9.56071 12.1559 11.4368 14.0282 13.7026 15.3141L14.8519 14.1669C15.098 13.9241 15.4087 13.7567 15.7471 13.6847C16.0856 13.6127 16.4376 13.639 16.7616 13.7605C17.5827 14.0663 18.4358 14.2784 19.3047 14.3928C19.7444 14.4547 20.1459 14.6757 20.4329 15.0137C20.7199 15.3518 20.8724 15.7834 20.8614 16.2263Z" stroke="#FB7327" stroke-width="2.25" stroke-linecap="round" stroke-linejoin="round"/>
</svg>
