<svg width="15" height="32" viewBox="0 0 15 32" fill="none" xmlns="http://www.w3.org/2000/svg">
<path fill-rule="evenodd" clip-rule="evenodd" d="M3.30306 16.1266V31.5949C3.30306 31.8143 3.48184 32 3.71169 32H9.50908C9.73042 32 9.91771 31.8228 9.91771 31.5949V15.8734H14.1232C14.336 15.8734 14.5062 15.7131 14.5318 15.5021L14.9319 10.7679C14.9489 10.5316 14.7616 10.3291 14.5233 10.3291H9.91771V6.97046C9.91771 6.18565 10.5647 5.5443 11.3564 5.5443H14.5914C14.8127 5.5443 15 5.36709 15 5.13924V0.405063C15 0.185654 14.8212 0 14.5914 0H9.11748C5.90806 0 3.30306 2.58228 3.30306 5.76371V10.3291H0.408629C0.18729 10.3291 0 10.5063 0 10.7342V15.4684C0 15.6878 0.178777 15.8734 0.408629 15.8734H3.30306V16.1266Z" fill="#FB7327"/>
</svg>
