<svg width="469" height="471" viewBox="0 0 469 471" fill="none" xmlns="http://www.w3.org/2000/svg">
<path fill-rule="evenodd" clip-rule="evenodd" d="M233.551 394.448C233.703 394.704 234.06 394.959 234.365 394.959C234.62 394.959 234.823 394.704 234.823 394.448C234.823 394.142 234.467 393.938 234.009 393.938C233.602 393.938 233.398 394.142 233.551 394.448Z" fill="white"/>
<circle cx="234" cy="235" r="224.5" stroke="white" stroke-width="3"/>
<path d="M203.644 125.173C202.376 127.409 196.634 137.768 190.817 148.052C185.075 158.41 179.481 168.322 178.437 170.185C177.393 172.048 175.976 174.507 175.305 175.774C174.634 176.966 168.519 187.921 161.732 199.994C154.946 212.066 148.383 223.841 147.115 226.076C145.922 228.312 143.983 231.666 142.939 233.529C141.895 235.392 141 237.106 141 237.404C141 237.776 158.153 238 179.034 238C199.99 238 217.068 237.776 217.068 237.553C217.068 236.808 208.864 221.605 207.224 219.22C205.807 217.208 205.807 217.208 195.217 216.985L184.627 216.761L191.936 202.975C195.963 195.373 200.885 186.058 202.824 182.257L206.403 175.327L212.593 186.356C216.024 192.392 219.753 199.025 220.871 201.111C222.064 203.124 227.136 212.29 232.132 221.382L241.305 238H257.19C265.841 238 273 237.851 273 237.702C273 237.478 272.329 236.211 271.583 234.87C269.868 231.889 239.963 178.606 237.353 173.911C236.308 172.048 233.4 166.831 230.864 162.36C226.315 154.386 224.227 150.66 214.308 132.924C208.342 122.267 207.522 121 206.702 121C206.329 121 204.986 122.863 203.644 125.173Z" fill="white"/>
<path d="M231 121.298C231 121.671 235.543 129.875 240.459 138.303L243.81 144.12H268.239C294.902 144.12 293.785 143.971 296.094 148.446C298.7 153.667 298.03 159.186 294.306 162.915L292.221 165.003H274.272C254.684 165.003 255.131 164.928 257.812 169.254C259.227 171.641 277.251 203.636 282.017 212.362C283.432 214.823 287.156 221.536 290.433 227.278L296.391 237.72L311.064 237.943C324.842 238.093 325.736 238.018 325.438 236.825C325.214 236.079 319.182 224.743 311.957 211.616L298.849 187.75L302.35 186.557C308.606 184.394 312.404 182.008 317.022 177.383C327.598 166.718 329.906 152.25 323.278 138.377C320.895 133.38 313.521 126.221 307.787 123.387L303.02 121H266.973C247.236 121 231 121.149 231 121.298Z" fill="white"/>
<path d="M60.9307 294H56.415L66.4922 270.26H71.2236L81.5166 294H76.7852L74.0791 287.525H66.1934L67.7041 283.707H72.4854L68.75 274.792L60.9307 294ZM86.8019 293.967V270.26H97.5929C102.441 270.26 104.864 272.379 104.864 276.618C104.864 279.485 102.977 281.859 99.2032 283.74L106.724 294H101.179L93.9571 283.657V281.648C98.1629 280.929 100.266 279.297 100.266 276.751C100.266 275.002 99.2807 274.128 97.3107 274.128H91.2843V293.967H86.8019ZM111.196 294V270.26H115.761L123.813 288.272L131.698 270.26H136.098V294H132.031V277.465L125.589 294H121.837L115.263 277.465V294H111.196ZM159.711 270.26V274.045H147.825V280.021H159.147V283.956H147.775V290.182H159.944V294H143.458V270.26H159.711ZM166.391 294V270.26H170.791L183.325 287.559V270.26H187.558V294H183.159L170.624 276.336V294H166.391ZM204.786 293.967V270.26H215.577C220.425 270.26 222.848 272.379 222.848 276.618C222.848 279.485 220.961 281.859 217.187 283.74L224.708 294H219.163L211.941 283.657V281.648C216.147 280.929 218.25 279.297 218.25 276.751C218.25 275.002 217.265 274.128 215.295 274.128H209.268V293.967H204.786ZM229.18 284.67V270.26H233.579V284.67C233.579 288.455 235.516 290.348 239.389 290.348C243.263 290.348 245.2 288.455 245.2 284.67V270.26H249.599V284.67C249.599 291.001 246.196 294.166 239.389 294.166C232.583 294.166 229.18 291.001 229.18 284.67ZM256.96 294V270.26H268.083C272.599 270.26 274.856 272.103 274.856 275.788C274.856 278.489 273.384 280.42 270.44 281.582C273.584 282.169 275.155 283.967 275.155 286.978C275.155 291.659 272.682 294 267.734 294H256.96ZM267.552 290.182C269.5 290.182 270.474 289.186 270.474 287.193C270.474 284.725 269.018 283.491 266.107 283.491H264.779V280.652C268.432 280.044 270.258 278.516 270.258 276.07C270.258 274.742 269.439 274.078 267.801 274.078H261.359V290.182H267.552ZM297.54 270.26V274.045H285.653V280.021H296.976V283.956H285.604V290.182H297.773V294H281.287V270.26H297.54ZM304.22 294V270.26H308.619L321.154 287.559V270.26H325.387V294H320.988L308.453 276.336V294H304.22ZM330.689 270.26H335.42L342.094 281.698L348.369 270.26H352.935L344.202 285.699V294H339.803V285.699L330.689 270.26ZM359.166 294H354.651L364.728 270.26H369.459L379.752 294H375.021L372.315 287.525H364.429L365.94 283.707H370.721L366.986 274.792L359.166 294ZM385.038 294V270.26H389.437L401.971 287.559V270.26H406.205V294H401.805L389.271 276.336V294H385.038Z" fill="white"/>
<path d="M123.047 327.17L127.367 317H130.337L124.487 330.2V338H121.607V330.2L115.757 317H118.727L123.047 327.17ZM132.139 330.05C132.139 328.67 132.319 327.46 132.679 326.42C133.059 325.36 133.569 324.48 134.209 323.78C134.849 323.06 135.609 322.53 136.489 322.19C137.389 321.83 138.349 321.65 139.369 321.65C140.389 321.65 141.339 321.83 142.219 322.19C143.119 322.53 143.889 323.06 144.529 323.78C145.189 324.48 145.699 325.36 146.059 326.42C146.439 327.46 146.629 328.67 146.629 330.05C146.629 331.43 146.439 332.65 146.059 333.71C145.699 334.75 145.189 335.63 144.529 336.35C143.889 337.05 143.119 337.58 142.219 337.94C141.339 338.28 140.389 338.45 139.369 338.45C138.349 338.45 137.389 338.28 136.489 337.94C135.609 337.58 134.849 337.05 134.209 336.35C133.569 335.63 133.059 334.75 132.679 333.71C132.319 332.65 132.139 331.43 132.139 330.05ZM135.139 330.05C135.139 332.11 135.529 333.64 136.309 334.64C137.109 335.62 138.129 336.11 139.369 336.11C140.629 336.11 141.649 335.62 142.429 334.64C143.229 333.64 143.629 332.11 143.629 330.05C143.629 327.99 143.229 326.47 142.429 325.49C141.649 324.49 140.629 323.99 139.369 323.99C138.129 323.99 137.109 324.49 136.309 325.49C135.529 326.47 135.139 327.99 135.139 330.05ZM165.11 335.45C165.11 335.77 165.18 335.99 165.32 336.11C165.48 336.21 165.67 336.26 165.89 336.26C166.05 336.26 166.22 336.24 166.4 336.2C166.58 336.14 166.75 336.07 166.91 335.99L167.39 337.85C167.07 338.01 166.72 338.15 166.34 338.27C165.96 338.39 165.54 338.45 165.08 338.45C164.38 338.45 163.79 338.29 163.31 337.97C162.83 337.65 162.53 337.05 162.41 336.17C161.79 336.77 161.03 337.3 160.13 337.76C159.25 338.22 158.21 338.45 157.01 338.45C155.43 338.45 154.28 337.98 153.56 337.04C152.84 336.08 152.48 334.69 152.48 332.87V322.1H155.36V332.9C155.36 333.98 155.55 334.79 155.93 335.33C156.31 335.85 156.95 336.11 157.85 336.11C158.73 336.11 159.53 335.95 160.25 335.63C160.97 335.31 161.63 334.88 162.23 334.34V322.1H165.11V335.45ZM174.776 322.1L174.926 324.05C175.546 323.35 176.286 322.79 177.146 322.37C178.006 321.93 178.916 321.69 179.876 321.65L180.026 323.81L179.666 324.14C178.726 324.16 177.876 324.33 177.116 324.65C176.376 324.95 175.746 325.37 175.226 325.91V338H172.346V322.1H174.776ZM193.489 322.1H195.919L196.069 323.96C196.649 323.36 197.339 322.83 198.139 322.37C198.959 321.89 199.929 321.65 201.049 321.65C201.969 321.65 202.799 321.83 203.539 322.19C204.299 322.53 204.939 323.06 205.459 323.78C205.999 324.48 206.409 325.36 206.689 326.42C206.989 327.46 207.139 328.67 207.139 330.05C207.139 331.43 206.959 332.65 206.599 333.71C206.239 334.75 205.749 335.63 205.129 336.35C204.509 337.05 203.779 337.58 202.939 337.94C202.099 338.28 201.199 338.45 200.239 338.45C199.499 338.45 198.799 338.34 198.139 338.12C197.499 337.9 196.909 337.6 196.369 337.22V345.05H193.489V322.1ZM200.419 323.99C199.619 323.99 198.879 324.15 198.199 324.47C197.539 324.79 196.929 325.22 196.369 325.76V334.85C196.829 335.21 197.379 335.51 198.019 335.75C198.659 335.99 199.359 336.11 200.119 336.11C201.299 336.11 202.259 335.62 202.999 334.64C203.759 333.64 204.139 332.11 204.139 330.05C204.139 327.99 203.789 326.47 203.089 325.49C202.409 324.49 201.519 323.99 200.419 323.99ZM215.719 322.1L215.869 324.05C216.489 323.35 217.229 322.79 218.089 322.37C218.949 321.93 219.859 321.69 220.819 321.65L220.969 323.81L220.609 324.14C219.669 324.16 218.819 324.33 218.059 324.65C217.319 324.95 216.689 325.37 216.169 325.91V338H213.289V322.1H215.719ZM224.396 330.05C224.396 328.67 224.576 327.46 224.936 326.42C225.316 325.36 225.826 324.48 226.466 323.78C227.106 323.06 227.866 322.53 228.746 322.19C229.646 321.83 230.606 321.65 231.626 321.65C232.646 321.65 233.596 321.83 234.476 322.19C235.376 322.53 236.146 323.06 236.786 323.78C237.446 324.48 237.956 325.36 238.316 326.42C238.696 327.46 238.886 328.67 238.886 330.05C238.886 331.43 238.696 332.65 238.316 333.71C237.956 334.75 237.446 335.63 236.786 336.35C236.146 337.05 235.376 337.58 234.476 337.94C233.596 338.28 232.646 338.45 231.626 338.45C230.606 338.45 229.646 338.28 228.746 337.94C227.866 337.58 227.106 337.05 226.466 336.35C225.826 335.63 225.316 334.75 224.936 333.71C224.576 332.65 224.396 331.43 224.396 330.05ZM227.396 330.05C227.396 332.11 227.786 333.64 228.566 334.64C229.366 335.62 230.386 336.11 231.626 336.11C232.886 336.11 233.906 335.62 234.686 334.64C235.486 333.64 235.886 332.11 235.886 330.05C235.886 327.99 235.486 326.47 234.686 325.49C233.906 324.49 232.886 323.99 231.626 323.99C230.386 323.99 229.366 324.49 228.566 325.49C227.786 326.47 227.396 327.99 227.396 330.05ZM243.687 322.1H245.967V320.27C245.967 318.39 246.367 317.05 247.167 316.25C247.987 315.45 249.167 315.05 250.707 315.05C251.727 315.05 252.577 315.26 253.257 315.68C253.957 316.1 254.527 316.9 254.967 318.08L252.567 318.89C252.387 318.41 252.157 318.04 251.877 317.78C251.597 317.52 251.197 317.39 250.677 317.39C250.077 317.39 249.617 317.6 249.297 318.02C248.997 318.42 248.847 319.07 248.847 319.97V322.1H252.747V324.2H248.847V338H245.967V324.2H243.687V322.1ZM264.024 336.11C265.044 336.11 265.924 335.92 266.664 335.54C267.424 335.14 268.034 334.72 268.494 334.28L269.784 335.84C269.164 336.54 268.354 337.15 267.354 337.67C266.354 338.19 265.214 338.45 263.934 338.45C262.874 338.45 261.894 338.28 260.994 337.94C260.094 337.58 259.314 337.05 258.654 336.35C258.014 335.63 257.504 334.75 257.124 333.71C256.764 332.65 256.584 331.43 256.584 330.05C256.584 328.67 256.764 327.46 257.124 326.42C257.484 325.36 257.984 324.48 258.624 323.78C259.264 323.06 260.014 322.53 260.874 322.19C261.754 321.83 262.704 321.65 263.724 321.65C264.664 321.65 265.524 321.8 266.304 322.1C267.104 322.38 267.784 322.82 268.344 323.42C268.904 324.02 269.334 324.77 269.634 325.67C269.954 326.55 270.114 327.59 270.114 328.79V330.89H259.614C259.734 332.67 260.194 333.99 260.994 334.85C261.814 335.69 262.824 336.11 264.024 336.11ZM263.754 323.99C262.674 323.99 261.754 324.39 260.994 325.19C260.254 325.97 259.804 327.17 259.644 328.79H267.264C267.264 327.25 266.954 326.07 266.334 325.25C265.734 324.41 264.874 323.99 263.754 323.99ZM280.938 323.84C280.178 323.84 279.538 324.01 279.018 324.35C278.498 324.69 278.238 325.21 278.238 325.91C278.238 326.47 278.438 326.94 278.838 327.32C279.238 327.68 279.738 328.01 280.338 328.31C280.938 328.61 281.578 328.91 282.258 329.21C282.958 329.51 283.608 329.87 284.208 330.29C284.808 330.69 285.308 331.19 285.708 331.79C286.108 332.37 286.308 333.11 286.308 334.01C286.308 335.35 285.818 336.43 284.838 337.25C283.858 338.05 282.498 338.45 280.758 338.45C279.038 338.45 277.718 338.05 276.798 337.25C275.898 336.43 275.278 335.3 274.938 333.86L277.428 333.02C277.528 333.68 277.688 334.22 277.908 334.64C278.148 335.06 278.428 335.39 278.748 335.63C279.068 335.87 279.418 336.04 279.798 336.14C280.178 336.22 280.568 336.26 280.968 336.26C281.648 336.26 282.248 336.1 282.768 335.78C283.288 335.44 283.548 334.92 283.548 334.22C283.548 333.7 283.348 333.27 282.948 332.93C282.548 332.59 282.048 332.27 281.448 331.97C280.848 331.67 280.198 331.37 279.498 331.07C278.818 330.75 278.178 330.37 277.578 329.93C276.978 329.49 276.478 328.96 276.078 328.34C275.678 327.7 275.478 326.91 275.478 325.97C275.478 325.51 275.568 325.03 275.748 324.53C275.928 324.01 276.228 323.54 276.648 323.12C277.088 322.7 277.658 322.35 278.358 322.07C279.078 321.79 279.958 321.65 280.998 321.65C282.378 321.65 283.518 321.96 284.418 322.58C285.338 323.18 285.998 324.2 286.398 325.64L283.908 326.48C283.688 325.66 283.328 325.02 282.828 324.56C282.328 324.08 281.698 323.84 280.938 323.84ZM296.578 323.84C295.818 323.84 295.178 324.01 294.658 324.35C294.138 324.69 293.878 325.21 293.878 325.91C293.878 326.47 294.078 326.94 294.478 327.32C294.878 327.68 295.378 328.01 295.978 328.31C296.578 328.61 297.218 328.91 297.898 329.21C298.598 329.51 299.248 329.87 299.848 330.29C300.448 330.69 300.948 331.19 301.348 331.79C301.748 332.37 301.948 333.11 301.948 334.01C301.948 335.35 301.458 336.43 300.478 337.25C299.498 338.05 298.138 338.45 296.398 338.45C294.678 338.45 293.358 338.05 292.438 337.25C291.538 336.43 290.918 335.3 290.578 333.86L293.068 333.02C293.168 333.68 293.328 334.22 293.548 334.64C293.788 335.06 294.068 335.39 294.388 335.63C294.708 335.87 295.058 336.04 295.438 336.14C295.818 336.22 296.208 336.26 296.608 336.26C297.288 336.26 297.888 336.1 298.408 335.78C298.928 335.44 299.188 334.92 299.188 334.22C299.188 333.7 298.988 333.27 298.588 332.93C298.188 332.59 297.688 332.27 297.088 331.97C296.488 331.67 295.838 331.37 295.138 331.07C294.458 330.75 293.818 330.37 293.218 329.93C292.618 329.49 292.118 328.96 291.718 328.34C291.318 327.7 291.118 326.91 291.118 325.97C291.118 325.51 291.208 325.03 291.388 324.53C291.568 324.01 291.868 323.54 292.288 323.12C292.728 322.7 293.298 322.35 293.998 322.07C294.718 321.79 295.598 321.65 296.638 321.65C298.018 321.65 299.158 321.96 300.058 322.58C300.978 323.18 301.638 324.2 302.038 325.64L299.548 326.48C299.328 325.66 298.968 325.02 298.468 324.56C297.968 324.08 297.338 323.84 296.578 323.84ZM310.418 338H307.538V322.1H310.418V338ZM307.148 317.09C307.148 316.45 307.318 315.98 307.658 315.68C308.018 315.36 308.458 315.2 308.978 315.2C309.518 315.2 309.958 315.36 310.298 315.68C310.658 315.98 310.838 316.45 310.838 317.09C310.838 317.73 310.658 318.21 310.298 318.53C309.958 318.83 309.518 318.98 308.978 318.98C308.458 318.98 308.018 318.83 307.658 318.53C307.318 318.21 307.148 317.73 307.148 317.09ZM316.565 330.05C316.565 328.67 316.745 327.46 317.105 326.42C317.485 325.36 317.995 324.48 318.635 323.78C319.275 323.06 320.035 322.53 320.915 322.19C321.815 321.83 322.775 321.65 323.795 321.65C324.815 321.65 325.765 321.83 326.645 322.19C327.545 322.53 328.315 323.06 328.955 323.78C329.615 324.48 330.125 325.36 330.485 326.42C330.865 327.46 331.055 328.67 331.055 330.05C331.055 331.43 330.865 332.65 330.485 333.71C330.125 334.75 329.615 335.63 328.955 336.35C328.315 337.05 327.545 337.58 326.645 337.94C325.765 338.28 324.815 338.45 323.795 338.45C322.775 338.45 321.815 338.28 320.915 337.94C320.035 337.58 319.275 337.05 318.635 336.35C317.995 335.63 317.485 334.75 317.105 333.71C316.745 332.65 316.565 331.43 316.565 330.05ZM319.565 330.05C319.565 332.11 319.955 333.64 320.735 334.64C321.535 335.62 322.555 336.11 323.795 336.11C325.055 336.11 326.075 335.62 326.855 334.64C327.655 333.64 328.055 332.11 328.055 330.05C328.055 327.99 327.655 326.47 326.855 325.49C326.075 324.49 325.055 323.99 323.795 323.99C322.555 323.99 321.535 324.49 320.735 325.49C319.955 326.47 319.565 327.99 319.565 330.05ZM339.636 322.1L339.786 324.02C340.406 323.4 341.136 322.85 341.976 322.37C342.816 321.89 343.756 321.65 344.796 321.65C345.736 321.65 346.536 321.76 347.196 321.98C347.856 322.2 348.386 322.55 348.786 323.03C349.206 323.49 349.506 324.1 349.686 324.86C349.886 325.62 349.986 326.54 349.986 327.62V338H347.106V327.32C347.106 325.1 346.096 323.99 344.076 323.99C343.376 323.99 342.686 324.15 342.006 324.47C341.326 324.79 340.686 325.23 340.086 325.79V338H337.206V322.1H339.636Z" fill="white"/>
</svg>
