<svg xmlns="http://www.w3.org/2000/svg" width="102" height="64" viewBox="0 0 102 64" fill="none">
  <path d="M34.2668 2.2828C33.5733 3.50573 30.4322 9.17197 27.2503 14.7975C24.1092 20.4637 21.0496 25.8853 20.4785 26.9045C19.9074 27.9236 19.1323 29.2688 18.7652 29.9618C18.398 30.614 15.0529 36.6064 11.3407 43.2102C7.62845 49.814 4.03859 56.2548 3.3451 57.4777C2.69239 58.7006 1.63175 60.535 1.06064 61.5541C0.489526 62.5732 0 63.5108 0 63.6739C0 63.8777 9.38259 64 20.8049 64C32.2679 64 41.6097 63.8777 41.6097 63.7554C41.6097 63.3478 37.1224 55.0318 36.2249 53.7274C35.4499 52.6268 35.4499 52.6268 29.6571 52.5045L23.8644 52.3822L27.8622 44.8408C30.0651 40.6828 32.7575 35.5873 33.8181 33.5083L35.7762 29.7172L39.1621 35.7503C41.0386 39.0522 43.0783 42.6803 43.6902 43.8217C44.3429 44.9223 47.1169 49.9363 49.8501 54.9096L54.8677 64H63.5568C68.2889 64 72.2051 63.9185 72.2051 63.8369C72.2051 63.7146 71.838 63.0217 71.43 62.2879C70.4918 60.6573 54.1334 31.5108 52.7057 28.9427C52.1346 27.9236 50.5436 25.0701 49.1566 22.6242C46.6682 18.2624 45.5259 16.2242 40.1004 6.52229C36.8369 0.692993 36.3881 0 35.9394 0C35.7354 0 35.0011 1.01911 34.2668 2.2828Z" fill="white"/>
  <path d="M49.2305 0.163185C49.2305 0.367168 51.7156 4.85479 54.4044 9.46481L56.2377 12.6469H69.6005C84.1854 12.6469 83.5743 12.5654 84.8372 15.0131C86.2631 17.8689 85.8965 20.8879 83.8595 22.9277L82.7187 24.07H72.9004C62.1858 24.07 62.4302 24.0292 63.8969 26.3954C64.6709 27.7009 74.53 45.2026 77.1374 49.9758C77.9114 51.3221 79.9484 54.9938 81.741 58.1352L85.0002 63.8467L93.0259 63.9691C100.563 64.0507 101.052 64.0099 100.889 63.3571C100.767 62.9492 97.4666 56.7481 93.5148 49.5679L86.3446 36.513L88.2594 35.8602C91.6815 34.6771 93.7593 33.3716 96.2851 30.8422C102.07 25.0083 103.333 17.0938 99.7073 9.50561C98.4036 6.77224 94.3704 2.85576 91.2334 1.30549L88.626 0H68.9079C58.1118 0 49.2305 0.0815926 49.2305 0.163185Z" fill="white"/>
</svg>