<svg width="272" height="40" viewBox="0 0 272 40" fill="none" xmlns="http://www.w3.org/2000/svg">
<path d="M20 0.000244141L24.4903 13.8199H39.0211L27.2654 22.3609L31.7557 36.1806L20 27.6396L8.2443 36.1806L12.7346 22.3609L0.97887 13.8199H15.5097L20 0.000244141Z" fill="#F3A407"/>
<path d="M78 0L82.4903 13.8197H97.0211L85.2654 22.3607L89.7557 36.1803L78 27.6393L66.2443 36.1803L70.7346 22.3607L58.9789 13.8197H73.5097L78 0Z" fill="#F3A407"/>
<path d="M136 0L140.49 13.8197H155.021L143.265 22.3607L147.756 36.1803L136 27.6393L124.244 36.1803L128.735 22.3607L116.979 13.8197H131.51L136 0Z" fill="#F3A407"/>
<path d="M194 0L198.49 13.8197H213.021L201.265 22.3607L205.756 36.1803L194 27.6393L182.244 36.1803L186.735 22.3607L174.979 13.8197H189.51L194 0Z" fill="#F3A407"/>
<path d="M252 0L256.49 13.8197H271.021L259.265 22.3607L263.756 36.1803L252 27.6393L240.244 36.1803L244.735 22.3607L232.979 13.8197H247.51L252 0Z" fill="#F3A407"/>
</svg>
