<svg width="171" height="46" viewBox="0 0 171 46" fill="none" xmlns="http://www.w3.org/2000/svg">
<path d="M39.3556 2.18632V4.37275H37.1692H34.9828V6.55918V8.74561H39.3556H43.7285V4.37275V-0.000102997H41.5421H39.3556V2.18632Z" fill="#1473E4"/>
<path d="M54.6606 11.3694V22.3015H57.0657H59.4708V11.3694V0.437243H57.0657H54.6606V11.3694Z" fill="#1473E4"/>
<path d="M69.3534 7.21517C67.8667 8.22092 67.7792 8.22092 67.7792 7.43381C67.7792 6.69042 67.4731 6.55924 65.8114 6.55924H63.8436V14.4304V22.3015H65.8114H67.7792V17.0978C67.7792 12.2002 67.8667 11.7629 68.8287 10.6697C69.6158 9.75142 70.228 9.44532 71.4961 9.44532C74.0324 9.44532 74.3385 10.1887 74.3385 16.7043V22.3015H76.5249H78.7113V16.7043C78.7113 10.3199 78.274 8.26465 76.6561 6.99652C74.9944 5.68467 71.4524 5.77213 69.3534 7.21517Z" fill="#1473E4"/>
<path d="M26.2372 15.305V17.4915H34.9829H43.7286V15.305V13.1186H34.9829H26.2372V15.305Z" fill="#1473E4"/>
<path d="M17.4915 24.0506V26.2371H30.61H43.7286V24.0506V21.8642H30.61H17.4915V24.0506Z" fill="#1473E4"/>
<path d="M8.74573 32.7965V34.9829H26.2371H43.7286V32.7965V30.6101H26.2371H8.74573V32.7965Z" fill="#1473E4"/>
<path d="M0 41.5421V43.7285H21.8643H43.7285V41.5421V39.3557H21.8643H0V41.5421Z" fill="#1473E4"/>
<path d="M91.3926 11.3694V22.3015H99.2637H107.135V20.3337V18.3659H101.669H96.2027V9.40159V0.437243H93.7976H91.3926V11.3694Z" fill="#1B1B1B"/>
<path d="M148.24 1.96779C148.24 3.49829 148.24 3.49829 150.208 3.49829C152.175 3.49829 152.175 3.49829 152.175 1.96779C152.175 0.437293 152.175 0.437293 150.208 0.437293C148.24 0.437293 148.24 0.437293 148.24 1.96779Z" fill="#1B1B1B"/>
<path d="M113.694 6.60306C110.852 7.74 109.234 10.4949 109.19 14.1681C109.19 17.5352 110.065 19.6342 112.164 21.2521C113.519 22.2579 114.35 22.5202 116.799 22.6514C119.248 22.8263 120.035 22.6514 121.565 21.8206C124.32 20.2464 125.282 18.366 125.282 14.4305C125.282 10.4949 124.189 8.3522 121.522 6.99662C119.685 6.03459 115.618 5.85967 113.694 6.60306ZM119.772 10.2325C122.615 13.2498 121.084 19.6779 117.542 19.6779C115.793 19.6779 114.7 19.022 113.913 17.4915C112.645 14.9989 113.388 10.801 115.312 9.66406C116.711 8.83322 118.723 9.09559 119.772 10.2325Z" fill="#1B1B1B"/>
<path d="M131.317 7.04043C129.262 8.35228 128.343 10.5824 128.343 14.2119C128.343 16.617 128.562 17.6227 129.349 18.8471C131.229 21.9081 135.384 22.7827 138.357 20.7712L139.931 19.7217V21.6895C139.931 23.22 139.669 23.9196 138.794 24.7942C137.832 25.7562 137.395 25.8874 135.865 25.6688C134.684 25.4939 133.809 25.1003 133.416 24.5318C132.629 23.3074 128.999 23.1763 128.999 24.4007C128.999 26.8932 132.672 28.6861 137.089 28.3362C140.281 28.0739 141.768 27.2867 142.992 25.2315C143.779 23.9634 143.867 23.0013 143.867 15.1739V6.55941H141.899C140.15 6.55941 139.931 6.6906 139.931 7.52144C139.888 8.39601 139.844 8.43974 139.363 7.82754C137.92 5.90349 133.722 5.50993 131.317 7.04043ZM138.794 10.5387C139.669 11.5882 139.931 12.3316 139.931 14.0807C139.931 15.8736 139.713 16.4421 138.663 17.5353C136.477 19.7217 133.809 19.022 132.76 16.0048C131.054 10.976 135.646 6.77806 138.794 10.5387Z" fill="#1B1B1B"/>
<path d="M160.484 6.42824C158.953 6.99671 157.335 8.48348 156.548 10.0577C155.324 12.5065 155.367 16.7044 156.679 19.0221C159.259 23.6573 166.999 24.0508 170.017 19.678C171.547 17.3604 171.328 16.617 169.098 16.617C167.48 16.617 167.087 16.7919 166.693 17.7102C165.687 19.8966 162.758 20.2027 160.965 18.3224C159.172 16.3983 159.478 11.2384 161.489 9.83907C162.801 8.92077 165.119 9.00822 166.168 10.0577C166.649 10.5387 167.043 11.1072 167.043 11.3696C167.043 11.5882 167.918 11.8068 169.011 11.8068C170.585 11.8068 170.979 11.6757 170.979 11.0197C170.979 9.70788 169.404 7.60891 167.786 6.86553C166.3 6.16587 161.927 5.9035 160.484 6.42824Z" fill="#1B1B1B"/>
<path d="M82.2096 8.96432V11.3694H84.6147H87.0197V8.96432V6.55925H84.6147H82.2096V8.96432Z" fill="#1B1B1B"/>
<path d="M148.24 14.4304V22.3015H150.208H152.175V14.4304V6.55924H150.208H148.24V14.4304Z" fill="#1B1B1B"/>
<path d="M82.2096 20.1151V22.3015H84.6147H87.0197V20.1151V17.9287H84.6147H82.2096V20.1151Z" fill="#1B1B1B"/>
<path d="M54.6606 38.4811C54.6606 42.9852 54.7044 43.2913 55.5352 43.2913C56.3661 43.2913 56.4098 42.9852 56.4098 38.4811C56.4098 33.9771 56.3661 33.671 55.5352 33.671C54.7044 33.671 54.6606 33.9771 54.6606 38.4811Z" fill="#1B1B1B"/>
<path d="M74.7758 34.327C74.7758 34.6768 75.1693 34.9829 75.6503 34.9829C76.1313 34.9829 76.5249 34.6768 76.5249 34.327C76.5249 33.9772 76.1313 33.6711 75.6503 33.6711C75.1693 33.6711 74.7758 33.9772 74.7758 34.327Z" fill="#1B1B1B"/>
<path d="M90.0807 34.327C90.0807 34.6768 90.4742 34.9829 90.9553 34.9829C91.4363 34.9829 91.8298 34.6768 91.8298 34.327C91.8298 33.9772 91.4363 33.6711 90.9553 33.6711C90.4742 33.6711 90.0807 33.9772 90.0807 34.327Z" fill="#1B1B1B"/>
<path d="M86.1451 35.2014C86.1451 35.9011 85.8827 36.2947 85.4892 36.2947C85.1394 36.2947 84.8333 36.6008 84.8333 36.9506C84.8333 37.3004 85.1394 37.6065 85.4892 37.6065C85.9265 37.6065 86.1451 38.3062 86.2326 40.3177C86.3638 43.0726 86.3638 43.0726 87.8068 43.2038C89.381 43.3787 89.862 42.2417 88.3315 41.8482C87.6319 41.6733 87.457 41.236 87.457 39.618C87.457 37.9126 87.5882 37.6065 88.3315 37.6065C88.8125 37.6065 89.2061 37.3004 89.2061 36.9506C89.2061 36.6008 88.8125 36.2947 88.3315 36.2947C87.6756 36.2947 87.457 35.9886 87.457 35.2014C87.457 34.5018 87.1946 34.1082 86.801 34.1082C86.4075 34.1082 86.1451 34.5018 86.1451 35.2014Z" fill="#1B1B1B"/>
<path d="M59.0335 37.1693C58.465 37.7377 58.1589 38.6123 58.1589 39.793C58.1589 42.0231 59.3396 43.2913 61.4386 43.2913C63.5375 43.2913 64.7182 42.0231 64.7182 39.793C64.7182 37.5628 63.5375 36.2947 61.4386 36.2947C60.4765 36.2947 59.5582 36.6445 59.0335 37.1693ZM62.9691 38.6998C63.4501 40.0116 62.9253 41.717 61.9196 42.1106C61.0887 42.4604 59.4708 41.0174 59.4708 39.9679C59.4708 37.6503 62.182 36.6445 62.9691 38.6998Z" fill="#1B1B1B"/>
<path d="M67.2544 37.0381C65.8989 38.6124 66.03 41.5859 67.4731 42.5042C68.3039 43.0289 70.1843 42.8977 70.7965 42.2855C71.2337 41.8483 71.3212 42.0232 71.19 43.0727C71.1025 44.0784 70.7965 44.4282 70.0093 44.5157C69.4409 44.6032 68.7849 44.472 68.5226 44.2096C67.8666 43.5537 66.3361 43.5974 66.5548 44.2533C66.8609 45.2154 69.0473 46.0025 70.4029 45.6964C72.4581 45.2591 73.0266 44.0347 73.0266 39.9242C73.0266 36.6008 72.9391 36.2947 72.152 36.2947C71.671 36.2947 71.2775 36.5134 71.2775 36.8195C71.2775 37.213 71.1463 37.213 70.7527 36.8195C69.9656 36.0324 67.9978 36.1636 67.2544 37.0381ZM70.7527 38.1313C71.4961 38.8747 71.4086 40.4927 70.5778 41.3235C69.9656 41.9357 69.747 41.9357 68.9161 41.411C68.4351 41.0611 67.9541 40.3615 67.8666 39.8367C67.6043 38.0439 69.5283 36.9069 70.7527 38.1313Z" fill="#1B1B1B"/>
<path d="M74.7758 39.793C74.7758 42.9852 74.8632 43.2913 75.6503 43.2913C76.4374 43.2913 76.5249 42.9852 76.5249 39.793C76.5249 36.6008 76.4374 36.2947 75.6503 36.2947C74.8632 36.2947 74.7758 36.6008 74.7758 39.793Z" fill="#1B1B1B"/>
<path d="M78.5364 36.9943C77.1371 38.3499 78.1866 39.7492 81.029 40.4052C81.9035 40.6238 82.2096 40.9299 82.1222 41.4547C81.9473 42.4604 80.7229 42.6353 79.892 41.7608C79.1486 41.0611 77.8368 40.8862 77.8368 41.4984C77.8368 42.4167 79.2798 43.2913 80.7229 43.2913C82.8218 43.2913 83.9588 42.5916 83.9588 41.3672C83.9588 40.0991 83.3466 39.5743 81.3788 39.0496C80.548 38.8309 79.8046 38.4374 79.6734 38.1313C79.411 37.3004 80.8541 36.9943 82.0347 37.6065C83.2591 38.3062 83.8713 37.9126 83.0842 36.9506C82.3846 36.0761 79.411 36.0761 78.5364 36.9943Z" fill="#1B1B1B"/>
<path d="M90.0807 39.793C90.0807 42.9852 90.1681 43.2913 90.9553 43.2913C91.7424 43.2913 91.8298 42.9852 91.8298 39.793C91.8298 36.6008 91.7424 36.2947 90.9553 36.2947C90.1681 36.2947 90.0807 36.6008 90.0807 39.793Z" fill="#1B1B1B"/>
<path d="M94.4536 37.1693C93.8851 37.7377 93.579 38.6123 93.579 39.793C93.579 41.9794 94.7597 43.2913 96.7712 43.2913C98.4328 43.2913 98.9576 42.9852 99.6572 41.6296C100.095 40.7987 100.051 40.6675 99.3074 40.6675C98.8701 40.6675 98.3891 40.9736 98.2142 41.3235C98.083 41.6733 97.4708 41.9794 96.8586 41.9794C95.503 41.9794 94.7159 40.3177 95.2844 38.7435C95.8091 37.3879 96.7712 37.0818 97.9081 37.8689C98.4328 38.2625 99.1762 38.4811 99.6135 38.3937C100.269 38.2625 100.226 38.1313 99.3511 37.2567C98.083 35.9886 95.6779 35.9449 94.4536 37.1693Z" fill="#1B1B1B"/>
<path d="M101.887 36.9069C101.625 37.2567 101.45 38.0001 101.538 38.5686C101.625 39.312 102.15 39.6618 103.768 40.1428C105.911 40.755 106.479 41.717 104.905 42.198C104.336 42.373 103.724 42.2418 103.243 41.8045C102.281 40.9299 101.45 40.8862 101.45 41.7608C101.45 42.6353 102.85 43.2913 104.686 43.2913C105.823 43.2913 106.435 43.0289 106.916 42.2418C107.835 40.8425 107.354 39.9242 105.473 39.312C103.374 38.656 102.893 38.175 103.549 37.5191C103.986 37.0818 104.293 37.0818 104.948 37.5191C105.998 38.1313 107.135 38.2187 107.135 37.6065C107.135 36.3821 102.85 35.8137 101.887 36.9069Z" fill="#1B1B1B"/>
<path d="M113.257 37.1693C112.688 37.7377 112.382 38.6123 112.382 39.793C112.382 41.9794 113.563 43.2913 115.575 43.2913C117.236 43.2913 117.761 42.9852 118.461 41.6296C118.898 40.7987 118.854 40.6675 118.111 40.6675C117.673 40.6675 117.192 40.9736 117.018 41.3235C116.886 41.6733 116.274 41.9794 115.662 41.9794C114.306 41.9794 113.519 40.3177 114.088 38.7435C114.612 37.3879 115.575 37.0818 116.711 37.8689C117.236 38.2625 117.98 38.4811 118.417 38.3937C119.073 38.2625 119.029 38.1313 118.154 37.2567C116.886 35.9886 114.481 35.9449 113.257 37.1693Z" fill="#1B1B1B"/>
<path d="M121.128 37.1693C120.56 37.7377 120.253 38.6123 120.253 39.793C120.253 42.0231 121.434 43.2913 123.489 43.2913C125.719 43.2913 127.031 42.0231 127.031 39.793C127.031 38.3937 126.769 37.7377 125.982 37.1255C124.626 36.0323 122.265 36.0323 121.128 37.1693ZM125.151 38.6998C125.894 40.3614 124.976 42.0669 123.402 41.8919C122.396 41.8045 122.177 41.5421 122.09 40.3177C121.871 38.2625 122.221 37.6065 123.533 37.6065C124.276 37.6065 124.801 37.9564 125.151 38.6998Z" fill="#1B1B1B"/>
<path d="M128.562 39.793C128.562 42.9852 128.649 43.2913 129.436 43.2913C130.18 43.2913 130.311 42.9852 130.311 40.9736C130.311 38.3499 130.748 37.4754 131.885 37.694C132.585 37.8252 132.76 38.3062 132.847 40.5801C132.978 42.8977 133.11 43.2913 133.809 43.2913C134.509 43.2913 134.64 42.8977 134.771 40.5364C134.903 37.9564 134.946 37.8252 135.996 37.8252C137.045 37.8252 137.089 37.9564 137.22 40.5364C137.351 42.9414 137.483 43.2913 138.182 43.2913C138.969 43.2913 139.057 42.9852 139.057 40.6238C139.057 39.1808 138.838 37.6065 138.619 37.1255C138.095 36.2072 136.433 36.0323 135.121 36.732C134.553 37.0381 134.203 37.0381 134.028 36.732C133.634 36.1198 131.492 36.1635 130.836 36.8194C130.442 37.213 130.311 37.213 130.311 36.8194C130.311 36.5133 129.917 36.2947 129.436 36.2947C128.649 36.2947 128.562 36.6008 128.562 39.793Z" fill="#1B1B1B"/>
<path d="M140.806 40.8863C140.806 45.1717 140.85 45.4778 141.68 45.4778C142.38 45.4778 142.555 45.1717 142.555 43.8598C142.555 42.5917 142.686 42.3731 143.08 42.7666C143.823 43.51 145.878 43.4225 146.665 42.5917C148.852 40.449 147.584 36.2948 144.785 36.2948C144.129 36.2948 143.386 36.5134 143.08 36.8195C142.686 37.2131 142.555 37.2131 142.555 36.8195C142.555 36.5134 142.161 36.2948 141.68 36.2948C140.85 36.2948 140.806 36.6009 140.806 40.8863ZM145.572 38.2188C146.928 39.8368 145.179 42.7229 143.561 41.7171C141.943 40.7114 142.511 37.6066 144.304 37.6066C144.741 37.6066 145.31 37.869 145.572 38.2188Z" fill="#1B1B1B"/>
<path d="M149.814 36.9945C149.42 37.3443 149.114 37.869 149.114 38.0877C149.114 38.7436 150.732 38.525 151.038 37.7816C151.388 36.907 153.225 37.1694 153.4 38.1314C153.487 38.6562 153.181 38.9623 152.438 39.1372C151.825 39.2684 150.82 39.4433 150.251 39.5745C148.983 39.8368 148.458 41.1487 149.114 42.3731C149.508 43.1165 149.989 43.2477 152.394 43.2039L155.236 43.1602V40.4053C155.236 37.1257 154.624 36.2948 152.175 36.2948C151.213 36.2948 150.208 36.6009 149.814 36.9945ZM153.487 40.6239C153.487 41.6734 152.438 42.548 151.432 42.3294C150.251 42.1107 150.47 40.5365 151.738 40.1867C153.4 39.7056 153.487 39.7494 153.487 40.6239Z" fill="#1B1B1B"/>
<path d="M156.985 39.793C156.985 42.5916 157.117 43.2913 157.641 43.2913C158.122 43.2913 158.297 42.8102 158.297 41.5858C158.297 38.9621 158.997 37.5191 160.178 37.694C161.052 37.8252 161.14 38.0876 161.271 40.5364C161.402 42.9414 161.533 43.2913 162.233 43.2913C163.02 43.2913 163.107 42.9852 163.107 40.3177C163.107 38.5686 162.889 37.1255 162.583 36.8194C161.883 36.1198 159.959 36.1635 159.216 36.8194C158.734 37.2567 158.603 37.2567 158.428 36.8194C158.297 36.5571 157.947 36.2947 157.598 36.2947C157.117 36.2947 156.985 37.0818 156.985 39.793Z" fill="#1B1B1B"/>
<path d="M165.338 39.6181C166.824 43.5099 166.912 44.1659 165.731 44.1659C165.25 44.1659 164.857 44.472 164.857 44.8655C164.857 45.3465 165.206 45.4777 166.256 45.3903C167.611 45.2591 167.743 45.0842 169.317 41.1049C171.241 36.2073 171.197 36.2947 170.148 36.2947C169.492 36.2947 169.098 36.9069 168.442 38.7872L167.611 41.3235L166.824 38.7872C166.168 36.732 165.819 36.2947 165.031 36.2947H164.069L165.338 39.6181Z" fill="#1B1B1B"/>
</svg>
